<svg id="Calque_1" data-name="Calque 1" xmlns="http://www.w3.org/2000/svg" viewBox="0 0 445.28 265.17"><defs><style>.cls-1{fill:#fff;stroke:#000;stroke-miterlimit:10;}</style></defs><title>eye</title><path class="cls-1" d="M69.77,329.13c43.66-85.69,131-138.62,221.79-134.62,128.4,5.66,199.34,122.28,200,130.77.05.55.06,4,2.31,5.65,3.42,2.58,8.27-1.57,12.33,1a7,7,0,0,1,3.08,6.68c-1,5.36-11.6,7.08-12.33,7.19-16.77,2.55-36.63-34.63-46.73-50.34-32.51-50.54-96.6-85-150-88.34-45.6-2.82-80.33,17.29-125.84,43.66-40.63,23.54-79.7,46.17-77,69.34,4,35.3,103.57,58.82,181.82,59.06,89.47.27,188-29.79,188-29.79a132.09,132.09,0,0,0-15.93-31.33c-7.85-11.34-14-16.26-70.87-56.49-8.36-5.92-18.63-13.1-21.06-10.79-3.35,3.18,11.36,17.11,11.3,33.9-.09,23.08-28.24,44.17-51.41,52.12C280.11,350.24,221,338,210,300.42c-6.89-23.39,6.33-51.52,26.09-65,43.3-29.59,119,10.43,121.88,44.1,1.24,14.45-11,27.12-14.72,31-18.13,18.79-43.92,20.89-63.52,21.69-96.27,4-120-20.11-161.14-1.55-37.5,16.92-53.77,53.16-53.46,53.46s25.84-32.85,45.71-27.89c1.38.34,5.69,1.42,7,4.64,2.43,6.09-8.89,12.28-14.72,25.57-6.35,14.48-2.9,29.92-.77,30.21,2.28.31,3.15-16.62,16.27-34.08.64-.85,12.33-16.24,17-14,4.18,2-2.25,15.4.78,36.41,2.16,15,8,25.9,9.29,25.57,1.56-.4-4.25-16.77.78-37.19.56-2.28,4.05-16.43,7.75-16.27,7.86.35,10.41,65.2,13.17,65.08,2.6-.12-.33-58,6.19-58.88,7.34-1,22.14,70.54,26.34,69.72,3.9-.75-7.44-62.57-.77-64.3,7.36-1.91,32.27,70.63,34.86,69.73,2.44-.85-21.21-65-13.17-68.95,8.62-4.19,49.05,63,51.9,61.2,2.62-1.62-31.55-58.15-27.11-61.2,5.07-3.49,57.1,65.19,60.43,62.75,2.9-2.13-35-55.71-31-58.88,4.58-3.58,59.76,60,62,58.11,2-1.73-43.94-54.34-38.74-59.66,6.12-6.25,79,57,82.12,53.46,2.67-3-48.92-50.44-45.71-54.23,3.64-4.31,75.49,50.39,76.7,48.8,1.08-1.42-58.16-44.76-54.23-51.13,4.56-7.39,91.88,39.12,93.74,35.64,1.55-2.93-59.88-36.48-57.33-41.83,2.71-5.7,75.95,24.48,77.47,20.91,1.24-2.92-47.36-24.15-45.71-28.66,1.4-3.82,38.2,6,75.92,17" transform="translate(-64.59 -193.8)"/></svg>