<svg xmlns="http://www.w3.org/2000/svg" viewBox="0 0 1672.66 1000.5"><defs><style>.cls-1{fill:none;stroke:#000;stroke-miterlimit:10;}</style></defs><title>jacket</title><g id="Calque_2" data-name="Calque 2"><polygon class="cls-1" points="0.53 437.5 7.53 362.5 17.53 302.5 41.53 209.5 67.53 128.5 100.53 66.5 107.53 57.5 104.53 54.5 133.53 42.5 158.53 35.5 175.53 23.5 190.53 13.5 201.53 0.5 220.53 0.5 243.53 0.5 258.53 0.5 278.53 15.5 297.53 29.5 300.53 35.5 324.53 41.5 341.53 47.5 353.53 54.5 353.53 59.5 364.53 78.5 378.53 108.5 394.53 145.5 411.53 196.5 422.53 228.5 437.53 286.5 442.53 311.5 454.53 381.5 464.53 433.5 464.53 437.5 451.53 442.5 413.53 446.5 404.53 425.5 398.53 397.5 391.53 371.5 382.53 343.5 366.53 295.5 359.53 274.5 359.53 309.5 359.53 347.5 360.53 382.5 361.53 393.5 354.53 396.5 336.53 400.5 313.53 402.5 296.53 402.5 295.53 406.5 286.53 406.5 286.53 402.5 260.53 403.5 229.53 403.5 225.53 399.5 223.53 404.5 204.53 405.5 172.53 404.5 172.53 407.5 163.53 407.5 161.53 402.5 136.53 402.5 117.53 398.5 91.53 390.5 93.53 359.5 94.53 326.5 95.53 298.5 97.53 271.5 90.53 289.5 74.53 342.5 64.53 381.5 57.53 410.5 51.53 439.5 47.53 443.5 36.53 444.5 20.53 444.5 0.53 437.5"/><polyline class="cls-1" points="158.53 35.5 161.19 35.5 152.53 54.5 146.53 76.5 148.53 81.5 176.53 81.5 196.53 81.5 200.53 83.5 191.53 89.5 177.53 97.5 162.53 104.5 173.53 117.5 196.53 138.5 213.53 157.5 207.53 173.5 200.53 185.5 200.53 209.5 209.53 295.5 223.53 404.5"/><polyline class="cls-1" points="225.53 399.5 220.53 360.5 203.53 214.5 203.53 185.5 221.53 168.5 283.53 122.5 300.53 107.5 300.53 103.5 282.53 93.5 263.53 78.5 268.53 76.5 295.53 79.5 310.53 82.5 314.53 80.5 314.53 76.5 300.53 35.5"/><polygon class="cls-1" points="213.53 157.5 221.53 110.5 214.53 86.5 207.53 68.5 203.53 51.5 203.53 4.5 257.53 4.5 257.53 32.5 257.53 57.5 230.53 127.5 213.53 157.5"/><polygon class="cls-1" points="251.53 302.5 248.53 328.5 278.53 336.5 309.53 326.5 304.53 298.5 251.53 302.5"/><polygon class="cls-1" points="303.53 178.5 300.53 204.5 306.03 204.5 311.53 204.5 311.53 178.5 303.53 178.5"/><rect class="cls-1" x="306.53" y="204.5" width="5" height="74"/><polygon class="cls-1" points="150.53 180.5 146.53 204.5 150.57 206.29 155.53 208.5 160.53 183.5 150.53 180.5"/><polygon class="cls-1" points="146.53 282.5 150.53 206.5 155.53 208.5 150.53 282.5 146.53 282.5"/><polyline class="cls-1" points="174.53 404.5 174.53 356.5 164.53 356.5 161.53 402.5"/><polyline class="cls-1" points="286.53 402.5 286.53 355.5 295.53 355.5 295.53 402.5"/></g><g id="Calque_4" data-name="Calque 4"><polygon class="cls-1" points="1563.59 611 1634.22 611 1634.22 639.78 1621.14 639.78 1572.92 639.78 1563.59 639.78 1563.59 611"/><path class="cls-1" d="M1627.21,660.89v0Z" transform="translate(-54.47 -18.5)"/><path class="cls-1" d="M1616.74,660.89v0Z" transform="translate(-54.47 -18.5)"/><polyline class="cls-1" points="1572.74 642.39 1562.28 642.39 1562.28 648.93 1562.28 650.24 1571.32 650.24 1575.36 650.24 1635.53 650.24 1635.53 642.39 1623.76 642.39 1623.72 639.78 1572.74 639.78"/><path class="cls-1" d="M1625.9,668.74" transform="translate(-54.47 -18.5)"/><polyline class="cls-1" points="1572.43 651.24 1572.43 699.64 1573.74 699.64 1580.28 700.95 1614.29 700.95 1616.91 700.95 1622.03 700.1 1624.76 699.64 1624.76 652.55 1624.76 651.24"/><path class="cls-1" d="M1675.61,717.14" transform="translate(-54.47 -18.5)"/><path class="cls-1" d="M1675.61,718.45l1.3,9.16,3.93,9.15,9.66,8.74,11,6,10.73,10.12,9.27,13.88,3.81,14.89,1.31,11.78V916l-.18,10.51,0,1.51s-1.09,62.14-1.1,62.54v7.85l-2.61,5.23-5.24,5.23-10.46,3.93-6.54,2.61-9.16,2.62h-73.25l-9.16-1.31-10.46-3.92-10.47-5.23-9.15-6.55V865q-.24-7.51-.47-15l-.84-26.81q.49-10.8,1-21.6l3-20,3-9,6-11,11-9,7.39-5.27,15.61-9.73,4-4.66,1.3-7.85.84-5.85Z" transform="translate(-54.47 -18.5)"/><path class="cls-1" d="M1618.5,802.5c-6,6.6-13.63,5-15,10-.66,2.43,1.09,2.91,2,8,1,5.92-.89,7.65-1,15-.09,6.11-.17,11.24,3,14,3.4,3,6.93.09,14,2,7.9,2.14,7.71,6.86,14,9,9.28,3.15,13.17-6,28-7,11.24-.78,12.25,4.24,25,3,5.2-.5,16.15-1.57,20-9a19,19,0,0,0,1-13c-1.15-4.1-3.15-5.33-3-9s2.31-4.27,3-8c.85-4.63-1.27-10.36-5-13-4.59-3.25-7.9.79-15-1-10-2.53-9.85-12.22-19-14-7.18-1.39-8.71,4.31-17,3s-9.62-7.28-17-7c-5.85.22-10.12,4.19-11,5C1620.75,794.9,1622.71,797.83,1618.5,802.5Z" transform="translate(-54.47 -18.5)"/><path class="cls-1" d="M1670.5,877.5" transform="translate(-54.47 -18.5)"/><path class="cls-1" d="M1594.5,861.5" transform="translate(-54.47 -18.5)"/><path class="cls-1" d="M1578.5,864.5a292.68,292.68,0,0,0,148,1" transform="translate(-54.47 -18.5)"/><path class="cls-1" d="M1726.5,926.5a226.13,226.13,0,0,1-148-3" transform="translate(-54.47 -18.5)"/></g><g id="Calque_6" data-name="Calque 6"><polygon class="cls-1" points="258.53 536.5 258.53 716.5 434.53 716.5 434.53 574.34 434.53 540.43 434.53 538.5 434.53 536.5 258.53 536.5"/><path class="cls-1" d="M492.5,559.5h0Z" transform="translate(-54.47 -18.5)"/><path class="cls-1" d="M492.5,559.5" transform="translate(-54.47 -18.5)"/><path class="cls-1" d="M491,559.5h3.5l3,1,6,3,5,3c2,1,5,3,5,3l4,3,6,5,9,9,5,7,4,7,4,9,4,11,2,11,1,14v11l-2,12-3,9-6,13-8,12-10,10-10,8-11,6-13,5" transform="translate(-54.47 -18.5)"/><path class="cls-1" d="M489.5,567.07l5,1.43,11,6,9,6,8,7,8,11,6,11,5,13,2,11,1,10v14l-3,14-6,13-9,14-10,10-12,8-15,6" transform="translate(-54.47 -18.5)"/><rect class="cls-1" x="259.03" y="743" width="176" height="4"/><polyline class="cls-1" points="435.03 574 442.03 579 449.03 584 457.03 594 463.03 605 468.03 621 468.03 635 463.03 652 456.03 664 446.03 673"/><polyline class="cls-1" points="434.53 598.38 440.03 604 444.03 612 447.03 624 447.03 637 441.03 648 434.53 655.5"/><polygon class="cls-1" points="409.03 691 407.03 692 406.03 694 406.03 697 406.03 700 408.03 702 411.03 703 413.03 702 414.03 700 414.03 697 414.03 694 413.03 692 411.03 691 409.03 691"/><polyline class="cls-1" points="418.03 691 421.03 691 421.03 704"/></g><g id="Calque_8" data-name="Calque 8"><rect class="cls-1" x="668.03" y="83" width="292" height="184"/><polygon class="cls-1" points="609.03 91 609.03 251 612.03 260 619.03 267 627.03 274 636.03 279 653.03 279 975.03 279 993.03 279 1004.03 272 1012.03 267 1017.03 259 1020.03 91 1016.03 83 1007.03 72 998.03 66 982.03 64 976.03 68 658.03 68 651.03 65 635.03 65 622.03 70 613.03 80 609.03 91"/><polygon class="cls-1" points="629.03 156 641.03 156 641.03 171 659.03 171 659.03 184 641.03 184 641.03 200 629.03 200 629.03 185 614.03 185 614.03 171 629.03 171 629.03 156"/><polygon class="cls-1" points="985.03 165 981.03 168 978.03 171 976.03 177 976.03 181 976.03 185 979.03 189 985.03 194 989.03 194 995.03 194 1001.03 191 1003.03 187 1004.03 182 1004.03 175 1002.03 171 999.03 168 995.03 165 992.03 165 985.03 165"/><polyline class="cls-1" points="609.03 91 616.91 79.75 624.78 74.64 634.91 70.55 648.41 68.5 658.53 68.5"/><path class="cls-1" d="M1074.5,109.5" transform="translate(-54.47 -18.5)"/><polyline class="cls-1" points="976.03 68 985.03 70 993.03 71 1001.03 74 1006.03 77 1010.03 81 1014.03 86 1020.03 91"/></g><g id="Calque_10" data-name="Calque 10"><polyline class="cls-1" points="909.15 469.76 906.89 467.5 906.89 465.24 906.89 462.98 902.37 459.22 898.6 458.46 891.82 460.72 888.05 462.98 885.79 465.24 889.56 467.5 894.08 466.75 899.35 463.74 903.87 462.98 906.13 462.98"/><polyline class="cls-1" points="896.34 457.71 895.59 456.2 892.57 455.45 888.81 455.45 883.53 456.96 875.25 459.97 872.99 459.97 869.97 457.71 871.48 454.7 878.26 450.93 888.05 449.42 893.33 450.18 896.34 455.45"/><polyline class="cls-1" points="890.31 448.67 887.3 447.16 883.53 445.65 883.53 444.15 882.78 441.89 879.76 438.87 877.5 438.12 873.48 438.52 869.97 438.87 862.44 439.63 857.92 441.13 855.66 444.15 855.66 446.41 857.92 448.67 861.68 447.92 865.45 446.41 871.48 444.9 876.75 443.39 882.03 443.39"/><polyline class="cls-1" points="873.74 438.87 871.48 436.61 866.96 433.6 863.19 433.6 857.16 433.6 852.64 435.11 844.36 438.87 840.59 441.13 837.58 440.38 834.56 438.12 838.33 435.11 842.1 432.09 848.88 429.83 857.16 427.57 862.44 427.57 865.45 429.83 867.71 432.85"/><polyline class="cls-1" points="859.42 426.82 855.66 424.56 854.15 421.55 855.66 414.01 856.41 403.46 855.66 397.44 851.89 396.68 848.12 396.68 843.6 397.44 838.33 395.18 833.81 396.68 830.04 398.19 833.81 402.71 830.11 403 824.01 403.46 814.97 409.49 808.95 413.26 808.19 417.78 809.7 420.79 805.18 425.31 808.95 426.82 814.97 426.07 824.77 418.53 834.56 417.03 842.1 417.78 844.36 421.55 835.32 422.3 826.27 426.07 821.75 429.08 821.75 430.59 824.77 433.6 830.04 432.09 840.59 427.57 845.11 426.82 848.12 417.03 850.38 407.99 848.88 401.96 845.86 398.94 839.08 402.71 837.58 404.97 833.81 408.74 840.59 412.5 845.86 408.74 848.88 409.49 848.88 411"/><polyline class="cls-1" points="830.04 402.71 827.78 401.2 825.52 397.44 821 390.66 811.96 379.36 800.66 367.3 787.1 356 781.82 356 780.32 359.01 778.81 360.52 778.81 361.27 773.54 365.04 769.01 370.31 762.24 377.1 757.71 385.38 756.21 389.9 753.95 398.94 753.95 405.72 756.21 413.26 757.71 415.52 756.21 420.04 750.93 428.33 744.91 433.6 732.85 441.13 717.03 448.67 704.22 452.44 689.15 454.7 677.85 452.44 668.81 447.16 662.03 436.61 662.03 420.04 659.77 404.97 658.26 400.45 658.26 395.18 662.03 389.9 668.81 383.12 674.84 377.1 674.84 368.81 672.58 362.78 668.81 359.77 662.03 359.77 656.76 363.53 654.5 367.3 651.49 374.08 651.49 380.86 649.98 391.41 649.23 396.68 645.46 399.7 641.69 404.97 639.43 414.76 639.43 421.55 637.92 433.6 636.42 443.39 632.65 456.2 627.38 470.52 624.36 481.82 622.86 494.63 621.35 505.93 619.84 508.94 616.08 514.97 613.06 523.25 607.03 527.78 607.03 533.8 607.03 544.35 613.82 552.64 610.8 559.42 619.84 566.2 628.88 570.72 646.96 573.73 670.32 575.99 704.98 575.99 722.3 576.75 729.84 574.49 732.1 571.47 736.62 564.69 734.36 571.47 734.36 575.24 736.62 576.75 741.89 576.75 835.32 576.75 842.1 576.75 838.33 573.73 838.33 569.21 844.36 576.75 857.16 576.75 888.81 576.75 887.3 569.97 888.81 567.71 889.56 574.49 892.57 576.75 918.94 577.5 937.02 575.99 940.04 572.98 940.04 567.71 942.3 574.49 948.33 573.73 965.65 572.23 976.2 569.21 978.46 565.45 979.21 561.68 982.23 561.68 982.23 566.95 986.75 566.95 997.3 564.69 1002.57 560.92 1002.57 557.16 1006.34 554.9 1010.1 554.9 1015.38 551.13 1016.88 546.61 1020.65 538.32 1022.16 529.28 1022.16 521.75 1019.9 515.72 1018.39 514.97 1014.62 509.69 1007.09 505.93 998.05 502.16 991.27 501.41 982.23 499.15 967.16 492.37 946.82 483.32 927.23 475.79 916.68 472.02 914.42 474.28 911.41 476.54 905.38 477.3 901.61 475.79 905.38 473.53 909.15 469.76 912.16 466.75 917.44 469.76 917.44 471.27"/><polyline class="cls-1" points="621.35 505.93 619.84 508.94 625.87 509.69 636.42 505.93 648.47 504.42 666.55 504.42 678.61 507.43 695.18 511.95 708.74 517.23 727.58 524.76 739.63 527.02 756.96 530.79 767.51 530.79 781.82 530.79 795.38 527.02 811.96 524.01 823.26 524.01 837.58 525.51 854.15 528.53 869.97 533.8 883.53 536.82 894.08 539.83 910.65 542.09 921.96 542.09 934.76 540.58 950.59 540.58 973.19 539.83 988.25 539.83 1003.32 538.32 1008.6 535.31 1015.38 527.78 1017.64 520.24 1017.64 514.97"/><polygon class="cls-1" points="655.25 388.4 655.25 379.36 657.51 374.08 665.05 365.79 671.07 365.04 673.33 368.05 673.33 375.59 668.81 377.85 664.29 380.86 658.26 385.38 655.25 388.4"/><polyline class="cls-1" points="647.72 433.6 647.72 448.67 655.25 464.49 670.32 469.76 695.94 473.53 717.78 469.76 734.36 461.48 753.95 443.39 766.75 438.12 794.63 443.39 842.85 464.49 869.97 473.53"/></g><g id="Calque_12" data-name="Calque 12"><polygon class="cls-1" points="1179.2 640.94 1204.58 610.49 1333.99 610.49 1360.63 640.94 1179.2 640.94"/><polygon class="cls-1" points="1117.03 651.09 1117.03 663.78 1127.18 663.78 1127.18 983.51 1117.03 983.51 1117.03 1000 1421.53 1000 1421.53 984.77 1412.65 984.77 1413.92 665.05 1421.53 665.05 1421.53 651.09 1117.03 651.09"/><polygon class="cls-1" points="1137.33 677.74 1137.33 764.01 1193.16 764.01 1193.16 677.74 1165.25 677.74 1137.33 677.74"/><line class="cls-1" x1="1165.25" y1="764.01" x2="1165.25" y2="677.74"/><line class="cls-1" x1="1137.33" y1="704.35" x2="1193.16" y2="704.35"/><line class="cls-1" x1="1137.33" y1="735.11" x2="1193.16" y2="735.11"/><polygon class="cls-1" points="1221.07 677.74 1253.17 677.74 1317.5 677.74 1317.5 781.77 1285.78 781.77 1252.28 781.77 1221.07 781.77 1221.07 677.74"/><polyline class="cls-1" points="1285.78 781.77 1285.78 677.74 1252.79 677.74 1252.79 781.77"/><line class="cls-1" x1="1221.07" y1="710.27" x2="1317.5" y2="710.27"/><line class="cls-1" x1="1221.07" y1="746.81" x2="1317.5" y2="746.81"/><polygon class="cls-1" points="1221.07 802.08 1253.17 802.08 1317.5 802.08 1317.5 906.11 1285.78 906.11 1252.28 906.11 1221.07 906.11 1221.07 802.08"/><polyline class="cls-1" points="1285.78 906.11 1285.78 802.08 1252.79 802.08 1252.79 906.11"/><line class="cls-1" x1="1221.07" y1="834.61" x2="1317.5" y2="834.61"/><line class="cls-1" x1="1221.07" y1="871.15" x2="1317.5" y2="871.15"/><polygon class="cls-1" points="1137.33 781.77 1137.33 868.05 1193.16 868.05 1193.16 781.77 1165.25 781.77 1137.33 781.77"/><line class="cls-1" x1="1165.25" y1="868.05" x2="1165.25" y2="781.77"/><line class="cls-1" x1="1137.33" y1="808.39" x2="1193.16" y2="808.39"/><line class="cls-1" x1="1137.33" y1="839.15" x2="1193.16" y2="839.15"/><polygon class="cls-1" points="1137.33 885.81 1137.33 972.09 1193.16 972.09 1193.16 885.81 1165.25 885.81 1137.33 885.81"/><line class="cls-1" x1="1165.25" y1="972.09" x2="1165.25" y2="885.81"/><line class="cls-1" x1="1137.33" y1="912.42" x2="1193.16" y2="912.42"/><line class="cls-1" x1="1137.33" y1="943.18" x2="1193.16" y2="943.18"/><polygon class="cls-1" points="1345.41 677.74 1345.41 764.01 1401.23 764.01 1401.23 677.74 1373.32 677.74 1345.41 677.74"/><line class="cls-1" x1="1373.32" y1="764.01" x2="1373.32" y2="677.74"/><line class="cls-1" x1="1345.41" y1="704.35" x2="1401.23" y2="704.35"/><line class="cls-1" x1="1345.41" y1="735.11" x2="1401.23" y2="735.11"/><polygon class="cls-1" points="1345.41 781.77 1345.41 868.05 1401.23 868.05 1401.23 781.77 1373.32 781.77 1345.41 781.77"/><line class="cls-1" x1="1373.32" y1="868.05" x2="1373.32" y2="781.77"/><line class="cls-1" x1="1345.41" y1="808.39" x2="1401.23" y2="808.39"/><line class="cls-1" x1="1345.41" y1="839.15" x2="1401.23" y2="839.15"/><polygon class="cls-1" points="1345.41 885.81 1345.41 972.09 1401.23 972.09 1401.23 885.81 1373.32 885.81 1345.41 885.81"/><line class="cls-1" x1="1373.32" y1="972.09" x2="1373.32" y2="885.81"/><line class="cls-1" x1="1345.41" y1="912.42" x2="1401.23" y2="912.42"/><line class="cls-1" x1="1345.41" y1="943.18" x2="1401.23" y2="943.18"/><polyline class="cls-1" points="1221.07 996.19 1221.07 928.95 1317.5 928.95 1317.5 996.19"/><path class="cls-1" d="M1294.57,653.1" transform="translate(-54.47 -18.5)"/><line class="cls-1" x1="1240.1" y1="618.11" x2="1240.1" y2="634.6"/><line class="cls-1" x1="1248.98" y1="625.72" x2="1240.1" y2="625.72"/><line class="cls-1" x1="1248.98" y1="618.11" x2="1248.98" y2="634.6"/><polygon class="cls-1" points="1259.13 618.11 1255.33 620.64 1252.79 625.72 1252.79 629.52 1255.33 633.33 1260.4 635.87 1265.48 634.6 1269.28 629.52 1269.28 623.18 1266.75 618.11 1259.13 618.11"/><polyline class="cls-1" points="1269.28 618.11 1275.63 618.11 1281.97 618.11"/><line class="cls-1" x1="1275.63" y1="635.87" x2="1275.63" y2="618.11"/><polyline class="cls-1" points="1290.85 635.87 1283.24 635.87 1283.24 626.35 1283.24 618.11 1290.85 618.11"/><line class="cls-1" x1="1288.32" y1="626.99" x2="1283.24" y2="626.99"/><polyline class="cls-1" points="1293.39 618.11 1293.39 635.87 1302.27 635.87"/></g><g id="Calque_14" data-name="Calque 14"><polygon class="cls-1" points="1212.03 306 1378.03 306 1489.03 306 1523.03 306 1523.03 316 1519.03 328 1507.03 347 1493.03 362 1468.03 379 1442.03 391 1412.03 399 1382.03 403 1345.03 403 1310.03 395 1282.03 385 1260.03 373 1243.03 360 1227.03 342 1212.03 315 1212.03 306"/><polyline class="cls-1" points="1402.03 303 1467.03 248 1472.03 254 1474.03 257 1479.03 275 1479.03 282 1478.03 289 1475.03 301 1473.03 304 1463.03 304 1470.03 296 1472.03 288 1475.03 276 1475.03 267"/><polygon class="cls-1" points="1440.03 276 1460.03 266 1465.03 264 1468.03 265 1469.03 270 1469.03 274 1467.03 285 1462.03 295 1456.03 304 1430.03 304 1412.03 304 1418.03 297 1422.03 295 1423.03 298 1426.03 301 1427.03 297 1430.03 293 1434.03 294 1437.03 297 1440.03 298 1442.03 294 1450.03 294 1453.03 291 1453.03 287 1449.03 286 1454.03 281 1454.03 279 1451.03 276 1446.03 276 1440.03 278 1440.03 276"/><path class="cls-1" d="M1446.5,250.5h-5l-7-2-4,1-3,4v8l3,5,6,3,6,2,5-3,2-7,2-3,4,1,3-4,2,2v9l2,5,9-5,10-11,5-11-1-6a43.31,43.31,0,0,1-5,1c-1,0-5,3-7,4a59.23,59.23,0,0,0-6,4l1-4h-3l10-9,6-4-3-2-6-2-15,2-10,4-5,4,3,6,6,3-2,1v2" transform="translate(-54.47 -18.5)"/><polygon class="cls-1" points="1270.03 246 1274.03 239 1281.03 231 1294.03 222 1311.03 215 1327.03 210 1335.03 210 1345.03 210 1349.03 214 1351.03 219 1351.03 223 1348.03 230 1343.03 240 1336.03 248 1325.03 256 1317.03 261 1306.03 266 1297.03 268 1286.03 269 1277.03 267 1271.03 262 1269.03 256 1270.03 246"/><polygon class="cls-1" points="1279.03 251 1280.03 243 1287.03 235 1295.03 229 1303.03 226 1314.03 226 1321.03 229 1323.03 235 1323.03 241 1320.03 247 1313.03 255 1305.03 259 1294.03 261 1285.03 258 1281.03 255 1279.03 251"/><polyline class="cls-1" points="1271.03 262 1275.03 268 1282.03 274 1292.03 278 1301.03 280 1313.03 279 1324.03 275 1332.03 269 1328.03 264 1343.03 250 1347.03 252 1350.03 247 1353.03 238 1353.03 230 1353.03 226 1351.03 219"/><polyline class="cls-1" points="1333.03 271 1336.03 275 1350.03 262 1344.03 252 1351.03 254 1360.03 264 1346.03 277 1338.03 275"/><polyline class="cls-1" points="1333.03 304 1340.03 294 1351.03 288 1363.03 288 1377.03 300 1377.03 306 1383.03 304 1383.03 300 1379.03 294 1368.03 288 1366.03 288"/><polyline class="cls-1" points="1222.03 304 1219.03 297 1219.03 290 1224.03 284 1241.03 276 1256.03 280 1269.03 290 1273.03 295 1281.03 292 1292.03 295 1303.03 302"/><polyline class="cls-1" points="1265.03 304 1265.03 301 1273.03 295 1265.03 290 1249.73 280 1240.03 280 1234.03 288 1234.03 297 1238.03 304"/><polyline class="cls-1" points="1242.03 304 1239.03 299 1237.03 292 1239.03 286 1244.03 284 1251.03 286 1261.03 290 1269.03 296"/><path class="cls-1" d="M1317.5,300.5" transform="translate(-54.47 -18.5)"/><polygon class="cls-1" points="1360.03 246 1361.63 252 1364.03 261 1383.03 269 1412.03 264 1434.03 248 1446.03 230 1443.03 212 1430.03 203 1407.03 203 1386.03 208 1373.03 219 1363.03 233 1360.03 246"/><polyline class="cls-1" points="1361.03 255 1362.03 261 1369.03 267 1378.03 271 1388.03 273 1403.03 271 1416.03 267 1434.03 254 1444.03 239 1448.03 231 1445.03 217"/><polyline class="cls-1" points="1253.03 276 1263.03 273 1263.03 269 1269.03 269 1275.03 269"/><polygon class="cls-1" points="1316.03 294 1312.03 288 1331.03 282 1333.03 288 1316.03 294"/><path class="cls-1" d="M1366.5,315.5v0Z" transform="translate(-54.47 -18.5)"/><path class="cls-1" d="M1370.5,319.5l-4-4Z" transform="translate(-54.47 -18.5)"/><polygon class="cls-1" points="1333.03 294 1316.03 301 1316.03 294 1333.03 288 1333.03 294"/><polyline class="cls-1" points="1403.03 273 1416.03 267 1435.03 269 1440.03 267 1444.58 267"/><path class="cls-1" d="M1571.5,322.5c-5-1-18-7-18-7l-15,2v-9h-5" transform="translate(-54.47 -18.5)"/></g></svg>