<svg xmlns="http://www.w3.org/2000/svg" xmlns:xlink="http://www.w3.org/1999/xlink" version="1.1" x="0px" y="0px" viewBox="0 0 197.204 197.201" enable-background="new 0 0 197.204 197.201" xml:space="preserve" style="fill: rgb(0, 0, 0);">
<g>
	<g id="__id47_staoyomklk"><path d="M43.746,16.627L16.629,43.744c-0.858,1.279-1.688,2.579-2.486,3.9l33.504-33.503   C46.325,14.94,45.025,15.77,43.746,16.627z" style="fill: rgb(255, 255, 255);"/></g>
	<g id="__id48_staoyomklk"><path d="M61.013,7.396L7.397,61.01c-0.321,0.777-0.632,1.56-0.933,2.347L63.359,6.464   C62.572,6.765,61.79,7.076,61.013,7.396z" style="fill: rgb(255, 255, 255);"/></g>
	<g id="__id49_staoyomklk"><path d="M73.148,3.296L3.297,73.146c-0.168,0.63-0.328,1.264-0.484,1.899L75.047,2.812   C74.412,2.968,73.779,3.128,73.148,3.296z" style="fill: rgb(255, 255, 255);"/></g>
	<g id="__id50_staoyomklk"><path d="M83.329,1.152L1.152,83.326c-0.084,0.549-0.16,1.1-0.236,1.652L84.98,0.915   C84.43,0.991,83.877,1.067,83.329,1.152z" style="fill: rgb(255, 255, 255);"/></g>
	<g id="__id51_staoyomklk"><path d="M92.34,0.178L0.179,92.337c-0.032,0.499-0.063,0.999-0.087,1.501L93.841,0.091   C93.339,0.115,92.84,0.147,92.34,0.178z" style="fill: rgb(255, 255, 255);"/></g>
	<g id="__id52_staoyomklk"><path d="M100.554,0L0,100.551c0.009,0.46,0.021,0.918,0.037,1.377L101.931,0.037   C101.473,0.022,101.014,0.009,100.554,0z" style="fill: rgb(255, 255, 255);"/></g>
	<g id="__id53_staoyomklk"><path d="M108.152,0.438L0.438,108.148c0.041,0.428,0.086,0.855,0.133,1.281L109.433,0.57   C109.007,0.524,108.58,0.479,108.152,0.438z" style="fill: rgb(255, 255, 255);"/></g>
	<g id="__id54_staoyomklk"><path d="M115.244,1.381L1.381,115.242c0.068,0.4,0.137,0.803,0.21,1.203L116.448,1.591   C116.049,1.518,115.646,1.45,115.244,1.381z" style="fill: rgb(255, 255, 255);"/></g>
	<g id="__id55_staoyomklk"><path d="M121.908,2.754L2.754,121.904c0.092,0.379,0.181,0.76,0.277,1.137L123.045,3.032   C122.667,2.936,122.287,2.846,121.908,2.754z" style="fill: rgb(255, 255, 255);"/></g>
	<g id="__id56_staoyomklk"><path d="M128.199,4.499L4.498,128.195c0.112,0.357,0.23,0.713,0.347,1.068L129.267,4.845   C128.911,4.729,128.557,4.611,128.199,4.499z" style="fill: rgb(255, 255, 255);"/></g>
	<g id="__id57_staoyomklk"><path d="M134.149,6.584L6.584,134.146c0.131,0.338,0.263,0.678,0.397,1.016L135.165,6.982   C134.828,6.848,134.488,6.716,134.149,6.584z" style="fill: rgb(255, 255, 255);"/></g>
	<g id="__id58_staoyomklk"><path d="M139.796,8.974L8.973,139.793c0.148,0.322,0.299,0.643,0.45,0.963L140.76,9.424   C140.439,9.272,140.118,9.122,139.796,8.974z" style="fill: rgb(255, 255, 255);"/></g>
	<g id="__id59_staoyomklk"><path d="M145.162,11.645L11.644,145.158c0.165,0.307,0.331,0.611,0.498,0.916L146.078,12.143   C145.773,11.975,145.468,11.809,145.162,11.645z" style="fill: rgb(255, 255, 255);"/></g>
	<g id="__id60_staoyomklk"><path d="M150.261,14.582L14.58,150.258c0.18,0.291,0.361,0.58,0.543,0.869L151.131,15.125   C150.842,14.942,150.552,14.761,150.261,14.582z" style="fill: rgb(255, 255, 255);"/></g>
	<g id="__id61_staoyomklk"><path d="M155.108,17.77L17.768,155.104c0.195,0.277,0.389,0.557,0.585,0.83l137.585-137.58   C155.663,18.157,155.386,17.964,155.108,17.77z" style="fill: rgb(255, 255, 255);"/></g>
	<g id="__id62_staoyomklk"><path d="M159.717,21.198L21.196,159.713c0.208,0.264,0.42,0.521,0.631,0.783L160.5,21.829   C160.239,21.618,159.979,21.406,159.717,21.198z" style="fill: rgb(255, 255, 255);"/></g>
	<g id="__id63_staoyomklk"><path d="M164.085,24.866L24.864,164.08c0.222,0.25,0.44,0.502,0.665,0.75L164.834,25.531   C164.587,25.307,164.334,25.088,164.085,24.866z" style="fill: rgb(255, 255, 255);"/></g>
	<g id="__id64_staoyomklk"><path d="M168.228,28.759L28.758,168.223c0.234,0.236,0.475,0.469,0.713,0.701L168.929,29.472   C168.694,29.234,168.463,28.994,168.228,28.759z" style="fill: rgb(255, 255, 255);"/></g>
	<g id="__id65_staoyomklk"><path d="M172.133,32.889L32.888,172.129c0.249,0.223,0.498,0.445,0.749,0.664l139.16-139.154   C172.577,33.387,172.355,33.138,172.133,32.889z" style="fill: rgb(255, 255, 255);"/></g>
	<g id="__id66_staoyomklk"><path d="M175.811,37.248L37.245,175.807c0.263,0.209,0.526,0.418,0.79,0.623L176.435,38.038   C176.229,37.773,176.02,37.51,175.811,37.248z" style="fill: rgb(255, 255, 255);"/></g>
	<g id="__id67_staoyomklk"><path d="M179.254,41.84L41.838,179.25c0.277,0.195,0.557,0.387,0.836,0.578L179.833,42.676   C179.641,42.397,179.449,42.117,179.254,41.84z" style="fill: rgb(255, 255, 255);"/></g>
	<g id="__id68_staoyomklk"><path d="M182.452,46.678L46.676,182.449c0.291,0.18,0.579,0.363,0.872,0.541L182.994,47.55   C182.816,47.257,182.633,46.969,182.452,46.678z" style="fill: rgb(255, 255, 255);"/></g>
	<g id="__id69_staoyomklk"><path d="M185.405,51.761L51.758,185.402c0.307,0.164,0.617,0.324,0.926,0.488l133.21-133.205   C185.73,52.377,185.571,52.067,185.405,51.761z" style="fill: rgb(255, 255, 255);"/></g>
	<g id="__id70_staoyomklk"><path d="M188.087,57.115L57.112,188.084c0.321,0.148,0.642,0.303,0.966,0.447L188.536,58.081   C188.39,57.756,188.236,57.437,188.087,57.115z" style="fill: rgb(255, 255, 255);"/></g>
	<g id="__id71_staoyomklk"><path d="M190.494,62.744L62.741,190.49c0.341,0.133,0.683,0.26,1.024,0.391L190.884,63.769   C190.754,63.427,190.627,63.084,190.494,62.744z" style="fill: rgb(255, 255, 255);"/></g>
	<g id="__id72_staoyomklk"><path d="M192.592,68.682L68.679,192.59c0.358,0.113,0.718,0.227,1.077,0.336L192.929,69.759   C192.818,69.399,192.706,69.04,192.592,68.682z" style="fill: rgb(255, 255, 255);"/></g>
	<g id="__id73_staoyomklk"><path d="M194.356,74.953L74.949,194.354c0.379,0.094,0.757,0.189,1.137,0.277L194.634,76.089   C194.545,75.708,194.45,75.331,194.356,74.953z" style="fill: rgb(255, 255, 255);"/></g>
	<g id="__id74_staoyomklk"><path d="M195.752,81.594L81.591,195.748c0.403,0.07,0.808,0.137,1.213,0.201L195.953,82.807   C195.888,82.402,195.822,81.997,195.752,81.594z" style="fill: rgb(255, 255, 255);"/></g>
	<g id="__id75_staoyomklk"><path d="M196.721,88.66L88.658,196.719c0.432,0.043,0.865,0.076,1.299,0.115L196.836,89.959   C196.799,89.526,196.764,89.092,196.721,88.66z" style="fill: rgb(255, 255, 255);"/></g>
	<g id="__id76_staoyomklk"><path d="M197.187,96.23L96.228,197.184c0.464,0.012,0.931,0.014,1.396,0.018l99.58-99.574   C197.2,97.16,197.197,96.694,197.187,96.23z" style="fill: rgb(255, 255, 255);"/></g>
	<g id="__id77_staoyomklk"><path d="M196.946,105.92c0.036-0.502,0.065-1.006,0.096-1.51l-92.634,92.629c0.504-0.029,1.008-0.059,1.51-0.096   L196.946,105.92z" style="fill: rgb(255, 255, 255);"/></g>
	<g id="__id78_staoyomklk"><path d="M115.06,195.838l80.781-80.775c0.094-0.562,0.188-1.123,0.273-1.688l-82.742,82.736   C113.937,196.027,114.498,195.934,115.06,195.838z" style="fill: rgb(255, 255, 255);"/></g>
	<g id="__id79_staoyomklk"><path d="M125.412,193.521l68.111-68.107c0.182-0.643,0.356-1.289,0.525-1.938l-70.575,70.57   C124.122,193.879,124.769,193.703,125.412,193.521z" style="fill: rgb(255, 255, 255);"/></g>
	<g id="__id80_staoyomklk"><path d="M137.913,189.057l51.146-51.141c0.351-0.807,0.692-1.619,1.022-2.438l-54.604,54.602   C136.295,189.75,137.106,189.408,137.913,189.057z" style="fill: rgb(255, 255, 255);"/></g>
	<g id="__id81_staoyomklk"><path d="M156.801,178.207l21.406-21.404c1.093-1.492,2.146-3.016,3.155-4.57l-29.131,29.129   C153.785,180.352,155.309,179.299,156.801,178.207z" style="fill: rgb(255, 255, 255);"/></g>
</g>
</svg>