<svg version="1.1"
      xmlns="http://www.w3.org/2000/svg"
      xmlns:xlink="http://www.w3.org/1999/xlink"  id="snapshot-68312" width="250" height="250" viewBox="0 0 250 250"><desc>This image was made on Patterninja.com</desc><defs>
<!-- image 53471 -->
<g id="transformed-53471" data-image="53471" transform="translate(-128.1112546011075, -58.93982744778948) rotate(29, 137.6312546011075, 73.21982744778948)"><g><svg version="1.1" width="275.262509202215px" height="146.43965489557897px" viewBox="0 0 275.262509202215 146.43965489557897"><g id="original-53471"><svg xmlns="http://www.w3.org/2000/svg" viewBox="0 0 416.12 222.5" xmlns:xlink="http://www.w3.org/1999/xlink" version="1.1" preserveAspectRatio="xMidYMid meet">
  <g id="Calque_2" data-name="Calque 2">
    <g id="Calque_10" data-name="Calque 10">
      <path d="M302.61 114.26l-2.26-2.26v-4.52l-4.52-3.76-3.76-.76-6.78 2.26-3.77 2.26-2.26 2.26 3.77 2.26 4.52-.75 5.27-3.01 4.52-.76h2.26" fill="rgba(0, 0, 0, 1)" stroke="none"/>
      <path d="M289.81 102.21l-.76-1.51-3.01-.75h-3.77l-5.27 1.51-8.29 3.01h-2.26l-3.01-2.26 1.5-3.01 6.78-3.77 9.8-1.51 5.27.75 3.02 5.28" fill="rgba(0, 0, 0, 1)" stroke="none"/>
      <path d="M283.78 93.17l-3.02-1.51-3.76-1.5v-1.51l-.75-2.26-3.02-3.02-2.26-.75-4.03.4-3.5.35-7.54.76-4.52 1.5-2.26 3.02v2.26l2.26 2.26 3.77-.75 3.77-1.51 6.02-1.51 5.28-1.51h5.27" fill="rgba(0, 0, 0, 1)" stroke="none"/>
      <path d="M267.2 83.37l-2.26-2.26-4.52-3.01h-9.79l-4.52 1.51-8.29 3.76-3.77 2.26-3.01-.75-3.01-2.26 3.76-3.01 3.77-3.02 6.78-2.26 8.29-2.26h5.27l3.02 2.26 2.26 3.02" fill="rgba(0, 0, 0, 1)" stroke="none"/>
      <path d="M252.89 71.32l-3.77-2.26-1.5-3.01 1.5-7.54.76-10.55-.76-6.02-3.77-.76h-3.76l-4.52.76-5.28-2.26-4.52 1.5-3.76 1.51 3.76 4.52-3.69.28-6.1.47-9.04 6.03-6.03 3.77-.75 4.52 1.5 3.01-4.51 4.52 3.76 1.51 6.03-.75 9.79-7.54 9.8-1.5 7.53.75 2.26 3.77-9.04.75-9.04 3.77-4.52 3.01v1.51l3.01 3.01 5.28-1.51 10.54-4.52 4.52-.75 3.02-9.79 2.26-9.05-1.51-6.02-3.01-3.02-6.78 3.77-1.51 2.26-3.77 3.77 6.78 3.77 5.28-3.77 3.01.75v1.51" fill="rgba(0, 0, 0, 1)" stroke="none"/>
      <path d="M223.51 47.21l-2.26-1.51-2.26-3.76-4.52-6.78-9.04-11.3-11.31-12.06L180.56.5h-5.27l-1.51 3.01-1.5 1.51v.75L167 9.54l-4.52 5.27-6.78 6.78-4.52 8.29-1.51 4.52-2.26 9.04v6.78l2.26 7.54 1.51 2.26-1.51 4.52-5.27 8.29-6.03 5.27-12.05 7.53-15.82 7.54-12.81 3.77-15.07 2.26-11.3-2.26-9.04-5.28-6.78-10.55V64.54l-2.26-15.07-1.51-4.52v-5.27l3.77-5.28 6.78-6.78 6.03-6.03v-8.28l-2.26-6.03-3.77-3.01H55.5l-5.28 3.76-2.26 3.77-3.01 6.78v6.78l-1.51 10.55-.75 5.27-3.77 3.02-3.76 5.27-2.26 9.8v6.78L31.39 78.1l-1.51 9.79-3.76 12.81-5.28 14.32-3.01 11.3-1.51 12.81-1.51 11.3-1.5 3.01-3.77 6.03-3.01 8.28-6.03 4.53v16.57l6.78 8.29-3.01 6.78 9.04 6.78 9.04 4.52 18.08 3.01 23.36 2.26h34.65l17.33.76 7.53-2.26 2.26-3.02 4.53-6.78-2.26 6.78v3.77l2.26 1.51h105.47l-3.77-3.02v-4.52l6.03 7.54h44.45l-1.51-6.78 1.51-2.26.76 6.78 3.01 2.26 26.37.75 18.08-1.51 3.01-3.01v-5.27l2.26 6.78 6.03-.76 17.33-1.5 10.55-3.02 2.26-3.76.75-3.77h3.01v5.27h4.52l10.55-2.26 5.28-3.76v-3.77l3.76-2.26h3.77l5.27-3.77 1.51-4.52 3.77-8.29 1.5-9.04v-7.53l-2.26-6.03-1.5-.75-3.77-5.28-7.53-3.76-9.05-3.77-6.77-.75-9.05-2.26-15.06-6.78-20.35-9.04-19.58-7.54-10.55-3.77-2.26 2.26-3.02 2.26-6.02.76-3.77-1.51 3.77-2.26 3.76-3.77 3.02-3.01 5.27 3.01v1.51" fill="rgba(0, 0, 0, 0.06395348837209303)" stroke="none"/>
      <path d="M14.81 150.43l-1.5 3.01 6.03.75 10.54-3.76 12.06-1.51h18.08l12.05 3.01 16.58 4.52 13.56 5.28 18.83 7.53 12.06 2.26 17.33 3.77h24.86l13.56-3.77 16.58-3.01h11.3l14.31 1.5 16.58 3.02 15.82 5.27 13.56 3.02 10.55 3.01 16.57 2.26h11.3l12.81-1.51h15.82l22.6-.75h15.07l15.07-1.51 5.27-3.01 6.78-7.53 2.26-7.54v-5.27" fill="rgba(0, 0, 0, 1)" stroke="none"/>
      <path d="M48.72 32.9v-9.04l2.26-5.28 7.53-8.29 6.03-.75 2.26 3.01v7.54l-4.52 2.26-4.52 3.01-6.03 4.52-3.01 3.02z" fill="rgba(0, 0, 0, 1)" stroke="none"/>
      <path d="M41.18 78.1v15.07l7.54 15.82 15.07 5.27 25.61 3.77 21.85-3.77 16.58-8.28 19.58-18.09 12.81-5.27 27.88 5.27 48.21 21.1 27.13 9.04" fill="rgba(0, 0, 0, 1)" stroke="none"/>
    </g>
  </g>
</svg>
</g></svg></g></g>
<!-- /image 53471 -->
</defs><rect x="0" y="0" width="250" height="250" fill="rgba(255, 255, 255, 1)"></rect><use xlink:href="#transformed-53471" transform="translate(-250, -250)"></use><use xlink:href="#transformed-53471" transform="translate(0, -250)"></use><use xlink:href="#transformed-53471" transform="translate(250, -250)"></use><use xlink:href="#transformed-53471" transform="translate(-250, 0)"></use><use xlink:href="#transformed-53471" transform="translate(0, 0)"></use><use xlink:href="#transformed-53471" transform="translate(250, 0)"></use><use xlink:href="#transformed-53471" transform="translate(-250, 250)"></use><use xlink:href="#transformed-53471" transform="translate(0, 250)"></use><use xlink:href="#transformed-53471" transform="translate(250, 250)"></use></svg>