<svg xmlns="http://www.w3.org/2000/svg" viewBox="0 0 232.33 245.46"><defs><style>.cls-1{stroke:#fff;stroke-miterlimit:10;}</style></defs><title>Fichier 1</title><g id="Calque_2" data-name="Calque 2"><g id="Calque_1-2" data-name="Calque 1"><path class="cls-1" d="M89.69,57.83a16.8,16.8,0,0,0,5,10c2.89,2.65,6,3.36,9,4,10.8,2.32,20-1.32,24-3,3.74-1.54,7.53-3.16,11-7a19.91,19.91,0,0,0,5-10c.34-2,.86-5.15-1-7-1.61-1.6-4.51-1.76-5-1-.13.2,0,.37,0,2v1c0,3-2,7-2,7-2,4.07-3.57,7.13-7,10a24,24,0,0,1-11,5c-2.78.59-10.42,2.2-18-2a24.77,24.77,0,0,1-10-11c-3.63-7.07-3.28-13.62-3-19,.35-6.6.56-11.34,4-16,4.07-5.51,10-7.37,12-8a27.69,27.69,0,0,1,11-1,22.79,22.79,0,0,1,8,2,9.23,9.23,0,0,1,3,2c1.86,2,2.93,5.15,2,6s-3.18-1.46-8-3a29.49,29.49,0,0,0-12-1c-4.65.38-7.87.64-11,3a15.41,15.41,0,0,0-5,7c-.41,1.07-1.16,3.35-1,10,.12,5,.19,7.84,1,11,.66,2.57,3,11.6,11,16,9.43,5.16,22.28,1.5,28-6a20.41,20.41,0,0,0,3-6c.64-1.77,4.3-11.91,0-21-1.34-2.84-3-4.66-4-9-.34-1.53-1.2-5.36,0-6,1.45-.77,6.1,3,8,8,1.41,3.7.79,6.7,2,7,.7.18,1.49-.68,4-4,3.19-4.21,4.78-6.32,5-7,1.64-5.08-2.83-11.57-7-15-5.13-4.22-10.77-4.56-20-5-12-.57-18.06-.85-24,3-8.08,5.25-14.15,15.85-12,23,.5,1.66,2.26,5.89,2,6s-.39-.91-1-1c-1.34-.2-1.78,4.37-5,6-1.66.84-4.29,1.24-6,0-1.14-.82-.74-1.56-2-9-.45-2.68-.85-4.63,0-7a10.92,10.92,0,0,1,1-2c.28-.46,3.36-5.52,6-5,1.49.29,1.79,2.14,3,2,.87-.1,1.32-1,2-2a12.65,12.65,0,0,1,5-4"/><path class="cls-1" d="M140.69,5.83c4.5-1.37,6.28-.86,7,0,.55.65.32,1.24,1,2,1,1.1,2.66,1,5,1,2,0,4,.09,6,0,6.22-.29,11.56,3.66,12,4,4.61,3.5,5.91,8.66,7,13,.95,3.76,1,8.51,1,18,0,3.28,1,5.33,0,8-1.34,3.63-3.88,4.11-4,7-.07,1.74.83,2.16,3,7,1.43,3.19,1.46,3.93,2,5,2.53,5,10,4.63,18,7,5.48,1.61,16.44,4.84,19,12,3.14,8.79-6.83,22.18-4,24,.53.34,1.29.29,2,1,1.09,1.09.08,3.8,0,4-2.38,6.12-24.35,9.66-18,8a14.3,14.3,0,0,1-8.88-2.39,13.06,13.06,0,0,1-5.12-6.61c-1-3.11-1.14-7.77,1-9,.84-.48,1.46-.1,3,0,4.41.3,6.32-2.29,10-3,2-.38,5-.29,9,2"/><path class="cls-1" d="M146.69,48.83c1.5,1.71,3.84-.17,9,1,6.71,1.52,8.76,6,11,5s1.73-6,1-14c-.9-9.88-2.92-12.07-4-13-.38-.32-.35-.27-5-3-6.52-3.83-7.22-4.35-8-4-2,.9,0,5.47-1,13C148.57,42.61,144.66,46.51,146.69,48.83Z"/><path class="cls-1" d="M90.69,61.83a39,39,0,0,0-12,2A45.23,45.23,0,0,0,67,70.06a28.19,28.19,0,0,0-2.3,1.77c-4.6,3.94-3.9,5.68-8,8-3.72,2.11-5,1-10,3-3.72,1.45-2.74,1.91-11,7-7,4.3-10.47,5.69-11,9-.16,1-.07,2.44-1,3-1.08.65-2.46-.53-4-1-5-1.52-11.35,4.58-14,8-1.6,2.07-2.4,4-4,8-1,2.61-1.47,4.22-1,6,.15.56.63,2.39,2,3,1.9.86,4-1.31,7-3,6.2-3.44,8.65-.55,16-4,2.91-1.36,6.55-3.07,7-6,.69-4.43-6.4-8.5-6-9s5.82,1.67,7,6c1.06,3.9-2.12,6.84-1,8s5.33-1.68,14-6a130.18,130.18,0,0,0,12-7h0"/><path class="cls-1" d="M89.69,92.83a28.85,28.85,0,0,1,7-3c2.38-.66,4.49-.92,10-1,14-.2,15.44,1.22,16,2,.8,1.1.87,2.74,1,6,.25,5.91-1.25,7.49,0,9s4.45,1.41,10,1c3.89-.29,4.91-.82,6,0,1.64,1.23,1.07,3.73,1,9-.12,9.23,1.5,10.58,0,13a4.53,4.53,0,0,1-1,1c-3.76,3.32-9.24,3.07-12,3-18.06-.72-27.1-1.09-28-1-2.16.21-4.89.64-7-1-1.69-1.31-2.15-3.3-5-5-1.32-.79-1.38-.45-2-1-1.79-1.58-.87-4-1-11a39.68,39.68,0,0,1,0-6c.23-2,.53-2.63,1-5,1-4.8.25-5,1-8a18.81,18.81,0,0,1,4-8,17.63,17.63,0,0,1,5-4c4-2.1,7.66-2,11-2,17.46.14,22-1.24,24,2,.48.76.65,2.17,1,5,.79,6.39-.53,8.63,1,10,1.1,1,2.22.21,8,0,4.51-.16,6.79-.22,8,1s.73,2.23,1,7c.24,4.18.53,3.55,1,10,.37,5.1.31,7.14-1,9a8.54,8.54,0,0,1-2,2,10.93,10.93,0,0,1-7,2"/><path class="cls-1" d="M102.69,163.83a49.69,49.69,0,0,0,25,6c18.84-.58,31-12.05,34-15"/><path class="cls-1" d="M100.69,151.83a64.74,64.74,0,0,0,25,5,66.14,66.14,0,0,0,36-11"/><path class="cls-1" d="M102.19,219a12,12,0,0,0,6,0c7.15-2,11.26-12.35,9.63-25.62"/><path class="cls-1" d="M90.69,62.83a9,9,0,0,0,2,6,8.58,8.58,0,0,0,3,2c8.16,3.16,42.44-4.44,45-5a17,17,0,0,1,9,0c2.38.74,5.11,1,6.4,3.21,1.4,2.34.7,5.79-1.4,8.79-.6,7-.77,9.61-.74,10,0,0,0,.13,0,.3a9.83,9.83,0,0,1,0,1.22,14,14,0,0,1-.23,1.7,12.62,12.62,0,0,0,0,5.73,7.26,7.26,0,0,0,2,3c4.42,3.75,13.54-2.74,16,0,.81.91.46,2.32-1,7-4.4,14.16-5,13.55-5,16,0,7.09,5.09,9.74,3,15-.75,1.91-1.87,2.69-2,5-.17,2.94,1.49,4.2,1,7-.39,2.27-1.65,2.42-2,4-.84,3.87,6,6.22,12,14,3.31,4.29,6.84,8.89,7,15,.08,2.89-.63,5.29,1,8,1.53,2.55,3.19,2.18,5,5,2.2,3.43,1.18,6.22,3,7,1.53.66,2.42-1.23,5-1s3,2.15,6,3c2.2.63,3.71.09,5,0,2-.13,6,.66,20,25,1,1.78,2.61,4.62,2,8a9.2,9.2,0,0,1-4,6c-3.81,2.3-8.53.65-11-1s-1.92-2.68-5-5c-1.68-1.27-4.21-3.17-7-3-3.08.19-4.19,2.8-7,5-5.57,4.37-14.3,4.35-20,2-6.35-2.61-9.46-8.33-12-13-5.92-10.88-8-18-8-18a8.92,8.92,0,0,0-3-5c-2-1.46-3.32-.75-5-2-2.57-1.92-1.19-5-3-8-2.26-3.79-7.64-4.39-13-5s-10.65-1.2-15,2c-3.54,2.61-6.23,7.58-7,9-.52,1-.85,1.69-1,2-4.55,9.78-8.37,18-15,21-5.76,2.64-14,1.58-18-3-2.19-2.52-2.5-5.44-3-10-.35-3.23-1-9.58,2-16s6.47-6.06,9-13c1.45-4,.34-4.14,2-8a43.8,43.8,0,0,1,7-11c1.62-1.76,3.27-3.2,3-5-.18-1.23-1.09-1.45-2-3-1.52-2.61-.15-4.08-1-7-1.15-4-4.37-3.53-5-7-.35-2,.7-2.07,1-7,.17-2.77-.07-4.17-1-5a7.1,7.1,0,0,0-2-1c-1.64-.67-2.52-.81-3-1-3.18-1.25-2-9.92-3-18a9.83,9.83,0,0,1,0-3c.52-3,2.29-3.71,2-5-.49-2.26-6.86-4.2-10-2a20.85,20.85,0,0,1-4,3,13.81,13.81,0,0,1-1.91.81,16.93,16.93,0,0,1-8.78.25l-.31-.06"/><path class="cls-1" d="M211.69,108.83c1.85-.33,3-1.78,4-3,3.07-3.8,3-8.37,3-10a16.7,16.7,0,0,0-3-10c-2.49-3.29-5.61-4.17-15-7-10.37-3.13-15.55-4.69-16-5-9.45-6.54-8.11-18.82-15-20-3-.51-3.26,1.77-8,2-7.61.38-10.41-5.3-15-4s-8,8.62-6,12c2.81,4.83,15.7.11,18,5,.45,1,0,1.26-1,8-.48,3.2-.83,5.53-1,8-.39,5.83-.76,11.21,2,13,1,.63,1.41.23,7,0,7.65-.31,8.74.36,9,1,.42,1-1.36,1.89-1,3,.8,2.45,10.46,1.25,13,0,1.62-.8,2-1,2-1,1.5-.75,1.89-1.11,2-1,.44.41-4.92,5.53-4,7,1.14,1.81,9.7-5.17,17-2C207.14,106.33,208.66,109.38,211.69,108.83Z"/></g></g></svg>